<?xml version="1.0" standalone="no"?>
<!DOCTYPE svg PUBLIC "-//W3C//DTD SVG 20010904//EN"
 "http://www.w3.org/TR/2001/REC-SVG-20010904/DTD/svg10.dtd">
<svg version="1.0" xmlns="http://www.w3.org/2000/svg"
 width="48.000000pt" height="48.000000pt" viewBox="0 0 48.000000 48.000000"
 preserveAspectRatio="xMidYMid meet">

<g transform="translate(0.000000,48.000000) scale(0.100000,-0.100000)"
fill="#FF0000" stroke="none">
<path d="M40 440 l0 -30 65 0 65 0 0 30 0 30 -65 0 -65 0 0 -30z"/>
<path d="M200 440 c0 -29 1 -30 50 -30 28 0 50 -4 50 -10 0 -5 -22 -10 -50
-10 -47 0 -50 -2 -50 -25 0 -23 3 -25 51 -25 l50 0 -3 -42 -3 -43 -62 -3 -63
-3 0 71 0 70 -65 0 c-63 0 -65 -1 -65 -25 0 -20 5 -25 25 -25 23 0 25 -4 25
-45 l0 -45 -40 0 c-29 0 -40 -4 -40 -15 0 -11 11 -15 40 -15 l39 0 3 -107 3
-108 48 -3 c46 -3 47 -3 47 27 0 17 -4 31 -10 31 -6 0 -10 33 -10 80 l0 80 31
0 c29 0 30 -1 15 -22 -9 -13 -16 -43 -16 -71 0 -42 5 -54 33 -82 41 -41 90
-52 140 -31 32 13 37 13 37 0 0 -9 10 -14 30 -14 l30 0 0 195 0 195 -60 0
c-33 0 -60 4 -60 10 0 6 25 10 56 10 54 0 55 0 52 28 l-3 27 -127 3 -128 3 0
-31z m210 -145 c0 -43 -1 -45 -30 -45 -29 0 -30 2 -30 45 0 43 1 45 30 45 29
0 30 -2 30 -45z m-49 -105 c18 0 49 -41 49 -65 0 -35 -42 -75 -78 -75 -31 0
-67 28 -77 60 -12 39 45 97 83 84 8 -2 18 -4 23 -4z"/>
</g>
</svg>
